{
    "asset" : {
        "generator" : "Khronos glTF Blender I/O v1.6.16",
        "version" : "2.0"
    },
    "scene" : 0,
    "scenes" : [
        {
            "name" : "Scene",
            "nodes" : [
                0,
                1,
                2,
                3,
                4,
                5,
                6,
                7,
                8,
                9
            ]
        }
    ],
    "nodes" : [
        {
            "name" : "Camera",
            "rotation" : [
                0.483536034822464,
                0.33687159419059753,
                -0.20870360732078552,
                0.7804827094078064
            ],
            "translation" : [
                7.358891487121582,
                4.958309173583984,
                6.925790786743164
            ]
        },
        {
            "name" : "Empty",
            "rotation" : [
                0.5,
                0.5,
                -0.5,
                0.4999999701976776
            ],
            "translation" : [
                0,
                1.2250001430511475,
                0
            ]
        },
        {
            "name" : "Empty.001",
            "rotation" : [
                0.7071068286895752,
                0,
                0,
                0.7071067094802856
            ],
            "translation" : [
                1.0305628776550293,
                1.225839376449585,
                0
            ]
        },
        {
            "name" : "Empty.002",
            "rotation" : [
                0,
                0.7071068286895752,
                0,
                0.7071068286895752
            ],
            "translation" : [
                0.25660035014152527,
                0,
                -0.0007265495369210839
            ]
        },
        {
            "mesh" : 0,
            "name" : "1-Main Body",
            "rotation" : [
                0,
                0,
                -0.7071068286895752,
                0.7071068286895752
            ],
            "scale" : [
                0.0057574971579015255,
                0.0057574971579015255,
                0.0057574971579015255
            ],
            "translation" : [
                -0.35426750779151917,
                0.19119662046432495,
                -0.277363121509552
            ]
        },
        {
            "mesh" : 1,
            "name" : "2-Engine Body",
            "translation" : [
                -0.35426750779151917,
                0.09263402968645096,
                -0.13784891366958618
            ]
        },
        {
            "mesh" : 2,
            "name" : "3-Cones",
            "rotation" : [
                0,
                0.7071068286895752,
                -0.7071068286895752,
                -3.090862321641907e-08
            ],
            "scale" : [
                0.026831021532416344,
                0.026831021532416344,
                0.026831021532416344
            ],
            "translation" : [
                -0.35426756739616394,
                0.09263404458761215,
                -0.13784891366958618
            ]
        },
        {
            "mesh" : 3,
            "name" : "2-Engine Body.001",
            "translation" : [
                -0.35426750779151917,
                0.09413403272628784,
                -0.13784891366958618
            ]
        },
        {
            "mesh" : 4,
            "name" : "3-Cones.001",
            "rotation" : [
                0,
                0.7071068286895752,
                -0.7071068286895752,
                -3.090862321641907e-08
            ],
            "scale" : [
                0.026831021532416344,
                0.026831021532416344,
                0.026831021532416344
            ],
            "translation" : [
                -0.35426753759384155,
                0.09413404762744904,
                -0.13784891366958618
            ]
        },
        {
            "mesh" : 5,
            "name" : "Cylinder",
            "rotation" : [
                0,
                0,
                -0.7071067690849304,
                0.7071068286895752
            ],
            "scale" : [
                0.0202749315649271,
                0.0202749315649271,
                0.0202749315649271
            ],
            "translation" : [
                -0.35426750779151917,
                -0.05013919994235039,
                -0.36681532859802246
            ]
        }
    ],
    "meshes" : [
        {
            "name" : "Plane.001",
            "primitives" : [
                {
                    "attributes" : {
                        "POSITION" : 0,
                        "NORMAL" : 1,
                        "TEXCOORD_0" : 2
                    },
                    "indices" : 3
                }
            ]
        },
        {
            "name" : "Plane",
            "primitives" : [
                {
                    "attributes" : {
                        "POSITION" : 4,
                        "NORMAL" : 5,
                        "TEXCOORD_0" : 6
                    },
                    "indices" : 7
                }
            ]
        },
        {
            "name" : "Cone",
            "primitives" : [
                {
                    "attributes" : {
                        "POSITION" : 8,
                        "NORMAL" : 9,
                        "TEXCOORD_0" : 10
                    },
                    "indices" : 11
                }
            ]
        },
        {
            "name" : "Plane.002",
            "primitives" : [
                {
                    "attributes" : {
                        "POSITION" : 12,
                        "NORMAL" : 13,
                        "TEXCOORD_0" : 14
                    },
                    "indices" : 7
                }
            ]
        },
        {
            "name" : "Cone.001",
            "primitives" : [
                {
                    "attributes" : {
                        "POSITION" : 15,
                        "NORMAL" : 16,
                        "TEXCOORD_0" : 17
                    },
                    "indices" : 18
                }
            ]
        },
        {
            "name" : "Cylinder",
            "primitives" : [
                {
                    "attributes" : {
                        "POSITION" : 19,
                        "NORMAL" : 20,
                        "TEXCOORD_0" : 21
                    },
                    "indices" : 22
                }
            ]
        }
    ],
    "accessors" : [
        {
            "bufferView" : 0,
            "componentType" : 5126,
            "count" : 7332,
            "max" : [
                35.55296325683594,
                176.02090454101562,
                24.231748580932617
            ],
            "min" : [
                -52.64628982543945,
                -4.76837158203125e-07,
                -367.7517395019531
            ],
            "type" : "VEC3"
        },
        {
            "bufferView" : 1,
            "componentType" : 5126,
            "count" : 7332,
            "type" : "VEC3"
        },
        {
            "bufferView" : 2,
            "componentType" : 5126,
            "count" : 7332,
            "type" : "VEC2"
        },
        {
            "bufferView" : 3,
            "componentType" : 5123,
            "count" : 12042,
            "type" : "SCALAR"
        },
        {
            "bufferView" : 4,
            "componentType" : 5126,
            "count" : 2560,
            "max" : [
                0.4087938964366913,
                -0.03960764408111572,
                -0.8016515970230103
            ],
            "min" : [
                0.29974111914634705,
                -0.14866042137145996,
                -0.9928068518638611
            ],
            "type" : "VEC3"
        },
        {
            "bufferView" : 5,
            "componentType" : 5126,
            "count" : 2560,
            "type" : "VEC3"
        },
        {
            "bufferView" : 6,
            "componentType" : 5126,
            "count" : 2560,
            "type" : "VEC2"
        },
        {
            "bufferView" : 7,
            "componentType" : 5123,
            "count" : 3840,
            "type" : "SCALAR"
        },
        {
            "bufferView" : 8,
            "componentType" : 5126,
            "count" : 7728,
            "max" : [
                -11.65661334991455,
                38.39025115966797,
                5.007234573364258
            ],
            "min" : [
                -14.750704765319824,
                30.143674850463867,
                1.9131437540054321
            ],
            "type" : "VEC3"
        },
        {
            "bufferView" : 9,
            "componentType" : 5126,
            "count" : 7728,
            "type" : "VEC3"
        },
        {
            "bufferView" : 10,
            "componentType" : 5126,
            "count" : 7728,
            "type" : "VEC2"
        },
        {
            "bufferView" : 11,
            "componentType" : 5123,
            "count" : 10500,
            "type" : "SCALAR"
        },
        {
            "bufferView" : 12,
            "componentType" : 5126,
            "count" : 2560,
            "max" : [
                0.6795040369033813,
                -0.008521676063537598,
                -1.056707739830017
            ],
            "min" : [
                0.5704512596130371,
                -0.11757445335388184,
                -1.2478630542755127
            ],
            "type" : "VEC3"
        },
        {
            "bufferView" : 13,
            "componentType" : 5126,
            "count" : 2560,
            "type" : "VEC3"
        },
        {
            "bufferView" : 14,
            "componentType" : 5126,
            "count" : 2560,
            "type" : "VEC2"
        },
        {
            "bufferView" : 15,
            "componentType" : 5126,
            "count" : 7757,
            "max" : [
                -21.74605941772461,
                47.89626693725586,
                3.8486509323120117
            ],
            "min" : [
                -24.840152740478516,
                39.649688720703125,
                0.754560112953186
            ],
            "type" : "VEC3"
        },
        {
            "bufferView" : 16,
            "componentType" : 5126,
            "count" : 7757,
            "type" : "VEC3"
        },
        {
            "bufferView" : 17,
            "componentType" : 5126,
            "count" : 7757,
            "type" : "VEC2"
        },
        {
            "bufferView" : 18,
            "componentType" : 5123,
            "count" : 10500,
            "type" : "SCALAR"
        },
        {
            "bufferView" : 19,
            "componentType" : 5126,
            "count" : 30456,
            "max" : [
                1.0000015497207642,
                9.092754364013672,
                1.0000001192092896
            ],
            "min" : [
                -4.45921516418457,
                -9.069122314453125,
                -47.643394470214844
            ],
            "type" : "VEC3"
        },
        {
            "bufferView" : 20,
            "componentType" : 5126,
            "count" : 30456,
            "type" : "VEC3"
        },
        {
            "bufferView" : 21,
            "componentType" : 5126,
            "count" : 30456,
            "type" : "VEC2"
        },
        {
            "bufferView" : 22,
            "componentType" : 5123,
            "count" : 48678,
            "type" : "SCALAR"
        }
    ],
    "bufferViews" : [
        {
            "buffer" : 0,
            "byteLength" : 87984,
            "byteOffset" : 0
        },
        {
            "buffer" : 0,
            "byteLength" : 87984,
            "byteOffset" : 87984
        },
        {
            "buffer" : 0,
            "byteLength" : 58656,
            "byteOffset" : 175968
        },
        {
            "buffer" : 0,
            "byteLength" : 24084,
            "byteOffset" : 234624
        },
        {
            "buffer" : 0,
            "byteLength" : 30720,
            "byteOffset" : 258708
        },
        {
            "buffer" : 0,
            "byteLength" : 30720,
            "byteOffset" : 289428
        },
        {
            "buffer" : 0,
            "byteLength" : 20480,
            "byteOffset" : 320148
        },
        {
            "buffer" : 0,
            "byteLength" : 7680,
            "byteOffset" : 340628
        },
        {
            "buffer" : 0,
            "byteLength" : 92736,
            "byteOffset" : 348308
        },
        {
            "buffer" : 0,
            "byteLength" : 92736,
            "byteOffset" : 441044
        },
        {
            "buffer" : 0,
            "byteLength" : 61824,
            "byteOffset" : 533780
        },
        {
            "buffer" : 0,
            "byteLength" : 21000,
            "byteOffset" : 595604
        },
        {
            "buffer" : 0,
            "byteLength" : 30720,
            "byteOffset" : 616604
        },
        {
            "buffer" : 0,
            "byteLength" : 30720,
            "byteOffset" : 647324
        },
        {
            "buffer" : 0,
            "byteLength" : 20480,
            "byteOffset" : 678044
        },
        {
            "buffer" : 0,
            "byteLength" : 93084,
            "byteOffset" : 698524
        },
        {
            "buffer" : 0,
            "byteLength" : 93084,
            "byteOffset" : 791608
        },
        {
            "buffer" : 0,
            "byteLength" : 62056,
            "byteOffset" : 884692
        },
        {
            "buffer" : 0,
            "byteLength" : 21000,
            "byteOffset" : 946748
        },
        {
            "buffer" : 0,
            "byteLength" : 365472,
            "byteOffset" : 967748
        },
        {
            "buffer" : 0,
            "byteLength" : 365472,
            "byteOffset" : 1333220
        },
        {
            "buffer" : 0,
            "byteLength" : 243648,
            "byteOffset" : 1698692
        },
        {
            "buffer" : 0,
            "byteLength" : 97356,
            "byteOffset" : 1942340
        }
    ],
    "buffers" : [
        {
            "byteLength" : 2039696,
            "uri" : "data:application/octet-stream;base64,"
        }
    ]
}
